<?xml version="1.0" encoding="UTF-8"?>
<!DOCTYPE svg PUBLIC "-//W3C//DTD SVG 1.1//EN" "http://www.w3.org/Graphics/SVG/1.1/DTD/svg11.dtd">
<svg xmlns="http://www.w3.org/2000/svg" style="background: transparent; background-color: transparent; color-scheme: light;" xmlns:xlink="http://www.w3.org/1999/xlink" version="1.1" width="732px" height="800px" viewBox="0 0 732 800"><defs/><g><g data-cell-id="0"><g data-cell-id="1"><g data-cell-id="WbDScF-n3EqTfmF48D0b-49"><g transform="translate(0.5,0.5)"><path d="M 150 230 L 320 220 L 390 260 L 450 280 L 550 260 L 610 210 L 700 180 L 700 400 L 680 420 L 690 450 L 680 500 L 650 580 L 590 610 L 550 640 L 540 700 L 490 710 L 490 760 L 450 780 L 410 760 L 390 730 L 340 750 L 280 720 L 220 710 L 190 660 L 140 660 Z" fill="#ffffff" stroke="#000000" stroke-miterlimit="10" pointer-events="all" style="fill: rgb(255, 255, 255); stroke: rgb(0, 0, 0);"/></g></g><g data-cell-id="WbDScF-n3EqTfmF48D0b-5"><g><path d="M 182 658 L 138 658 L 147.86 234" fill="none" stroke="#22c55e" stroke-width="12" stroke-miterlimit="10" pointer-events="stroke" style="stroke: rgb(34, 197, 94);"/><ellipse cx="188" cy="658" rx="6" ry="6" fill="#22c55e" stroke="#22c55e" stroke-width="12" pointer-events="all" style="fill: rgb(34, 197, 94); stroke: rgb(34, 197, 94);"/><ellipse cx="148" cy="228" rx="6" ry="6" fill="#22c55e" stroke="#22c55e" stroke-width="12" pointer-events="all" style="fill: rgb(34, 197, 94); stroke: rgb(34, 197, 94);"/></g></g><g data-cell-id="WbDScF-n3EqTfmF48D0b-6"><g><path d="M 679.18 492.12 L 688 448 L 678 418 L 693.76 402.24" fill="none" stroke="#22c55e" stroke-width="12" stroke-miterlimit="10" pointer-events="stroke" style="stroke: rgb(34, 197, 94);"/><ellipse cx="678" cy="498" rx="6" ry="6" fill="#22c55e" stroke="#22c55e" stroke-width="12" pointer-events="all" style="fill: rgb(34, 197, 94); stroke: rgb(34, 197, 94);"/><ellipse cx="698" cy="398" rx="6" ry="6" fill="#22c55e" stroke="#22c55e" stroke-width="12" pointer-events="all" style="fill: rgb(34, 197, 94); stroke: rgb(34, 197, 94);"/></g></g><g data-cell-id="WbDScF-n3EqTfmF48D0b-7"><g><path d="M 153.99 227.65 L 312.01 218.35" fill="none" stroke="#22c55e" stroke-width="12" stroke-miterlimit="10" pointer-events="stroke" style="stroke: rgb(34, 197, 94);"/><ellipse cx="148" cy="228" rx="6" ry="6" fill="#22c55e" stroke="#22c55e" stroke-width="12" pointer-events="all" style="fill: rgb(34, 197, 94); stroke: rgb(34, 197, 94);"/><ellipse cx="318" cy="218" rx="6" ry="6" fill="#22c55e" stroke="#22c55e" stroke-width="12" pointer-events="all" style="fill: rgb(34, 197, 94); stroke: rgb(34, 197, 94);"/></g></g><g data-cell-id="WbDScF-n3EqTfmF48D0b-8"><g><path d="M 593.37 605.32 L 648 578 L 675.89 503.62" fill="none" stroke="#22c55e" stroke-width="12" stroke-miterlimit="10" pointer-events="stroke" style="stroke: rgb(34, 197, 94);"/><ellipse cx="588" cy="608" rx="6" ry="6" fill="#22c55e" stroke="#22c55e" stroke-width="12" pointer-events="all" style="fill: rgb(34, 197, 94); stroke: rgb(34, 197, 94);"/><ellipse cx="678" cy="498" rx="6" ry="6" fill="#22c55e" stroke="#22c55e" stroke-width="12" pointer-events="all" style="fill: rgb(34, 197, 94); stroke: rgb(34, 197, 94);"/></g></g><g data-cell-id="WbDScF-n3EqTfmF48D0b-9"><g><path d="M 542.12 259.18 L 448 278 L 388 258 L 323.21 220.98" fill="none" stroke="#22c55e" stroke-width="12" stroke-miterlimit="10" pointer-events="stroke" style="stroke: rgb(34, 197, 94);"/><ellipse cx="548" cy="258" rx="6" ry="6" fill="#22c55e" stroke="#22c55e" stroke-width="12" pointer-events="all" style="fill: rgb(34, 197, 94); stroke: rgb(34, 197, 94);"/><ellipse cx="318" cy="218" rx="6" ry="6" fill="#22c55e" stroke="#22c55e" stroke-width="12" pointer-events="all" style="fill: rgb(34, 197, 94); stroke: rgb(34, 197, 94);"/></g></g><g data-cell-id="WbDScF-n3EqTfmF48D0b-10"><g><path d="M 698 184 L 698 392" fill="none" stroke="#22c55e" stroke-width="12" stroke-miterlimit="10" pointer-events="stroke" style="stroke: rgb(34, 197, 94);"/><ellipse cx="698" cy="178" rx="6" ry="6" fill="#22c55e" stroke="#22c55e" stroke-width="12" pointer-events="all" style="fill: rgb(34, 197, 94); stroke: rgb(34, 197, 94);"/><ellipse cx="698" cy="398" rx="6" ry="6" fill="#22c55e" stroke="#22c55e" stroke-width="12" pointer-events="all" style="fill: rgb(34, 197, 94); stroke: rgb(34, 197, 94);"/></g></g><g data-cell-id="WbDScF-n3EqTfmF48D0b-11"><g><path d="M 552.61 254.16 L 608 208 L 692.31 179.9" fill="none" stroke="#22c55e" stroke-width="12" stroke-miterlimit="10" pointer-events="stroke" style="stroke: rgb(34, 197, 94);"/><ellipse cx="548" cy="258" rx="6" ry="6" fill="#22c55e" stroke="#22c55e" stroke-width="12" pointer-events="all" style="fill: rgb(34, 197, 94); stroke: rgb(34, 197, 94);"/><ellipse cx="698" cy="178" rx="6" ry="6" fill="#22c55e" stroke="#22c55e" stroke-width="12" pointer-events="all" style="fill: rgb(34, 197, 94); stroke: rgb(34, 197, 94);"/></g></g><g data-cell-id="WbDScF-n3EqTfmF48D0b-12"><g><path d="M 493.88 706.82 L 538 698 L 548 638 L 583.2 611.6" fill="none" stroke="#22c55e" stroke-width="12" stroke-miterlimit="10" pointer-events="stroke" style="stroke: rgb(34, 197, 94);"/><ellipse cx="488" cy="708" rx="6" ry="6" fill="#22c55e" stroke="#22c55e" stroke-width="12" pointer-events="all" style="fill: rgb(34, 197, 94); stroke: rgb(34, 197, 94);"/><ellipse cx="588" cy="608" rx="6" ry="6" fill="#22c55e" stroke="#22c55e" stroke-width="12" pointer-events="all" style="fill: rgb(34, 197, 94); stroke: rgb(34, 197, 94);"/></g></g><g data-cell-id="WbDScF-n3EqTfmF48D0b-13"><g><path d="M 391.33 732.99 L 408 758 L 448 778 L 488 758 L 488 714" fill="none" stroke="#22c55e" stroke-width="12" stroke-miterlimit="10" pointer-events="stroke" style="stroke: rgb(34, 197, 94);"/><ellipse cx="388" cy="728" rx="6" ry="6" fill="#22c55e" stroke="#22c55e" stroke-width="12" pointer-events="all" style="fill: rgb(34, 197, 94); stroke: rgb(34, 197, 94);"/><ellipse cx="488" cy="708" rx="6" ry="6" fill="#22c55e" stroke="#22c55e" stroke-width="12" pointer-events="all" style="fill: rgb(34, 197, 94); stroke: rgb(34, 197, 94);"/></g></g><g data-cell-id="WbDScF-n3EqTfmF48D0b-14"><g><path d="M 191.09 663.14 L 218 708 L 278 718 L 338 748 L 382.43 730.23" fill="none" stroke="#22c55e" stroke-width="12" stroke-miterlimit="10" pointer-events="stroke" style="stroke: rgb(34, 197, 94);"/><ellipse cx="188" cy="658" rx="6" ry="6" fill="#22c55e" stroke="#22c55e" stroke-width="12" pointer-events="all" style="fill: rgb(34, 197, 94); stroke: rgb(34, 197, 94);"/><ellipse cx="388" cy="728" rx="6" ry="6" fill="#22c55e" stroke="#22c55e" stroke-width="12" pointer-events="all" style="fill: rgb(34, 197, 94); stroke: rgb(34, 197, 94);"/></g></g><g data-cell-id="WbDScF-n3EqTfmF48D0b-15"><g><path d="M 283.78 255.16 L 162.71 230.94" fill="none" stroke="#22c55e" stroke-width="30" stroke-miterlimit="10" pointer-events="stroke" style="stroke: rgb(34, 197, 94);"/><ellipse cx="298" cy="258" rx="14.5" ry="14.5" fill="#22c55e" stroke="#22c55e" stroke-width="30" pointer-events="all" style="fill: rgb(34, 197, 94); stroke: rgb(34, 197, 94);"/><ellipse cx="148" cy="228" rx="15" ry="15" fill="#22c55e" stroke="#22c55e" stroke-width="30" pointer-events="all" style="fill: rgb(34, 197, 94); stroke: rgb(34, 197, 94);"/></g></g><g data-cell-id="WbDScF-n3EqTfmF48D0b-16"><g><path d="M 304.48 245.03 L 311.29 231.42" fill="none" stroke="#22c55e" stroke-width="30" stroke-miterlimit="10" pointer-events="stroke" style="stroke: rgb(34, 197, 94);"/><ellipse cx="298" cy="258" rx="14.5" ry="14.5" fill="#22c55e" stroke="#22c55e" stroke-width="30" pointer-events="all" style="fill: rgb(34, 197, 94); stroke: rgb(34, 197, 94);"/><ellipse cx="318" cy="218" rx="15" ry="15" fill="#22c55e" stroke="#22c55e" stroke-width="30" pointer-events="all" style="fill: rgb(34, 197, 94); stroke: rgb(34, 197, 94);"/></g></g><g data-cell-id="WbDScF-n3EqTfmF48D0b-17"><g><path d="M 298 323.5 L 298 273" fill="none" stroke="#22c55e" stroke-width="30" stroke-miterlimit="10" pointer-events="stroke" style="stroke: rgb(34, 197, 94);"/><ellipse cx="298" cy="338" rx="14.5" ry="14.5" fill="#22c55e" stroke="#22c55e" stroke-width="30" pointer-events="all" style="fill: rgb(34, 197, 94); stroke: rgb(34, 197, 94);"/><ellipse cx="298" cy="258" rx="15" ry="15" fill="#22c55e" stroke="#22c55e" stroke-width="30" pointer-events="all" style="fill: rgb(34, 197, 94); stroke: rgb(34, 197, 94);"/></g></g><g data-cell-id="WbDScF-n3EqTfmF48D0b-18"><g><path d="M 238.25 397.75 L 287.39 348.61" fill="none" stroke="#22c55e" stroke-width="30" stroke-miterlimit="10" pointer-events="stroke" style="stroke: rgb(34, 197, 94);"/><ellipse cx="228" cy="408" rx="14.5" ry="14.5" fill="#22c55e" stroke="#22c55e" stroke-width="30" pointer-events="all" style="fill: rgb(34, 197, 94); stroke: rgb(34, 197, 94);"/><ellipse cx="298" cy="338" rx="15" ry="15" fill="#22c55e" stroke="#22c55e" stroke-width="30" pointer-events="all" style="fill: rgb(34, 197, 94); stroke: rgb(34, 197, 94);"/></g></g><g data-cell-id="WbDScF-n3EqTfmF48D0b-19"><g><path d="M 194.48 645.03 L 241.29 551.42" fill="none" stroke="#22c55e" stroke-width="30" stroke-miterlimit="10" pointer-events="stroke" style="stroke: rgb(34, 197, 94);"/><ellipse cx="188" cy="658" rx="14.5" ry="14.5" fill="#22c55e" stroke="#22c55e" stroke-width="30" pointer-events="all" style="fill: rgb(34, 197, 94); stroke: rgb(34, 197, 94);"/><ellipse cx="248" cy="538" rx="15" ry="15" fill="#22c55e" stroke="#22c55e" stroke-width="30" pointer-events="all" style="fill: rgb(34, 197, 94); stroke: rgb(34, 197, 94);"/></g></g><g data-cell-id="WbDScF-n3EqTfmF48D0b-20"><g><path d="M 199.67 649.4 L 361.9 529.86" fill="none" stroke="#22c55e" stroke-width="30" stroke-miterlimit="10" pointer-events="stroke" style="stroke: rgb(34, 197, 94);"/><ellipse cx="188" cy="658" rx="14.5" ry="14.5" fill="#22c55e" stroke="#22c55e" stroke-width="30" pointer-events="all" style="fill: rgb(34, 197, 94); stroke: rgb(34, 197, 94);"/><ellipse cx="378" cy="518" rx="20" ry="20" fill="#22c55e" stroke="#22c55e" stroke-width="30" pointer-events="all" style="fill: rgb(34, 197, 94); stroke: rgb(34, 197, 94);"/></g></g><g data-cell-id="WbDScF-n3EqTfmF48D0b-21"><g><path d="M 262.33 535.8 L 363.17 520.28" fill="none" stroke="#22c55e" stroke-width="30" stroke-miterlimit="10" pointer-events="stroke" style="stroke: rgb(34, 197, 94);"/><ellipse cx="248" cy="538" rx="14.5" ry="14.5" fill="#22c55e" stroke="#22c55e" stroke-width="30" pointer-events="all" style="fill: rgb(34, 197, 94); stroke: rgb(34, 197, 94);"/><ellipse cx="378" cy="518" rx="15" ry="15" fill="#22c55e" stroke="#22c55e" stroke-width="30" pointer-events="all" style="fill: rgb(34, 197, 94); stroke: rgb(34, 197, 94);"/></g></g><g data-cell-id="WbDScF-n3EqTfmF48D0b-22"><g><path d="M 155.5 538 L 233 538" fill="none" stroke="#22c55e" stroke-width="30" stroke-miterlimit="10" pointer-events="stroke" style="stroke: rgb(34, 197, 94);"/><ellipse cx="141" cy="538" rx="14.5" ry="14.5" fill="#22c55e" stroke="#22c55e" stroke-width="30" pointer-events="all" style="fill: rgb(34, 197, 94); stroke: rgb(34, 197, 94);"/><ellipse cx="248" cy="538" rx="15" ry="15" fill="#22c55e" stroke="#22c55e" stroke-width="30" pointer-events="all" style="fill: rgb(34, 197, 94); stroke: rgb(34, 197, 94);"/></g></g><g data-cell-id="WbDScF-n3EqTfmF48D0b-23"><g><path d="M 384.87 505.23 L 440.89 401.21" fill="none" stroke="#22c55e" stroke-width="30" stroke-miterlimit="10" pointer-events="stroke" style="stroke: rgb(34, 197, 94);"/><ellipse cx="378" cy="518" rx="14.5" ry="14.5" fill="#22c55e" stroke="#22c55e" stroke-width="30" pointer-events="all" style="fill: rgb(34, 197, 94); stroke: rgb(34, 197, 94);"/><ellipse cx="448" cy="388" rx="15" ry="15" fill="#22c55e" stroke="#22c55e" stroke-width="30" pointer-events="all" style="fill: rgb(34, 197, 94); stroke: rgb(34, 197, 94);"/></g></g><g data-cell-id="WbDScF-n3EqTfmF48D0b-24"><g><path d="M 461.38 382.42 L 554.15 343.77" fill="none" stroke="#22c55e" stroke-width="30" stroke-miterlimit="10" pointer-events="stroke" style="stroke: rgb(34, 197, 94);"/><ellipse cx="448" cy="388" rx="14.5" ry="14.5" fill="#22c55e" stroke="#22c55e" stroke-width="30" pointer-events="all" style="fill: rgb(34, 197, 94); stroke: rgb(34, 197, 94);"/><ellipse cx="568" cy="338" rx="15" ry="15" fill="#22c55e" stroke="#22c55e" stroke-width="30" pointer-events="all" style="fill: rgb(34, 197, 94); stroke: rgb(34, 197, 94);"/></g></g><g data-cell-id="WbDScF-n3EqTfmF48D0b-25"><g><path d="M 564.48 323.93 L 551.64 272.55" fill="none" stroke="#22c55e" stroke-width="30" stroke-miterlimit="10" pointer-events="stroke" style="stroke: rgb(34, 197, 94);"/><ellipse cx="568" cy="338" rx="14.5" ry="14.5" fill="#22c55e" stroke="#22c55e" stroke-width="30" pointer-events="all" style="fill: rgb(34, 197, 94); stroke: rgb(34, 197, 94);"/><ellipse cx="548" cy="258" rx="15" ry="15" fill="#22c55e" stroke="#22c55e" stroke-width="30" pointer-events="all" style="fill: rgb(34, 197, 94); stroke: rgb(34, 197, 94);"/></g></g><g data-cell-id="WbDScF-n3EqTfmF48D0b-26"><g><path d="M 392.48 517.2 L 543.02 508.83" fill="none" stroke="#22c55e" stroke-width="30" stroke-miterlimit="10" pointer-events="stroke" style="stroke: rgb(34, 197, 94);"/><ellipse cx="378" cy="518" rx="14.5" ry="14.5" fill="#22c55e" stroke="#22c55e" stroke-width="30" pointer-events="all" style="fill: rgb(34, 197, 94); stroke: rgb(34, 197, 94);"/><ellipse cx="558" cy="508" rx="15" ry="15" fill="#22c55e" stroke="#22c55e" stroke-width="30" pointer-events="all" style="fill: rgb(34, 197, 94); stroke: rgb(34, 197, 94);"/></g></g><g data-cell-id="WbDScF-n3EqTfmF48D0b-27"><g><path d="M 583.83 594.11 L 562.31 522.37" fill="none" stroke="#22c55e" stroke-width="30" stroke-miterlimit="10" pointer-events="stroke" style="stroke: rgb(34, 197, 94);"/><ellipse cx="588" cy="608" rx="14.5" ry="14.5" fill="#22c55e" stroke="#22c55e" stroke-width="30" pointer-events="all" style="fill: rgb(34, 197, 94); stroke: rgb(34, 197, 94);"/><ellipse cx="558" cy="508" rx="15" ry="15" fill="#22c55e" stroke="#22c55e" stroke-width="30" pointer-events="all" style="fill: rgb(34, 197, 94); stroke: rgb(34, 197, 94);"/></g></g><g data-cell-id="WbDScF-n3EqTfmF48D0b-28"><g><path d="M 572.45 506.8 L 663.05 499.25" fill="none" stroke="#22c55e" stroke-width="30" stroke-miterlimit="10" pointer-events="stroke" style="stroke: rgb(34, 197, 94);"/><ellipse cx="558" cy="508" rx="14.5" ry="14.5" fill="#22c55e" stroke="#22c55e" stroke-width="30" pointer-events="all" style="fill: rgb(34, 197, 94); stroke: rgb(34, 197, 94);"/><ellipse cx="678" cy="498" rx="15" ry="15" fill="#22c55e" stroke="#22c55e" stroke-width="30" pointer-events="all" style="fill: rgb(34, 197, 94); stroke: rgb(34, 197, 94);"/></g></g><g data-cell-id="WbDScF-n3EqTfmF48D0b-29"><g><path d="M 558.85 493.53 L 567.12 352.97" fill="none" stroke="#22c55e" stroke-width="30" stroke-miterlimit="10" pointer-events="stroke" style="stroke: rgb(34, 197, 94);"/><ellipse cx="558" cy="508" rx="14.5" ry="14.5" fill="#22c55e" stroke="#22c55e" stroke-width="30" pointer-events="all" style="fill: rgb(34, 197, 94); stroke: rgb(34, 197, 94);"/><ellipse cx="568" cy="338" rx="15" ry="15" fill="#22c55e" stroke="#22c55e" stroke-width="30" pointer-events="all" style="fill: rgb(34, 197, 94); stroke: rgb(34, 197, 94);"/></g></g><g data-cell-id="WbDScF-n3EqTfmF48D0b-30"><g><path d="M 577.97 337.23 L 688.03 328.77" fill="none" stroke="#22c55e" stroke-width="20" stroke-miterlimit="10" pointer-events="stroke" style="stroke: rgb(34, 197, 94);"/><ellipse cx="568" cy="338" rx="10" ry="10" fill="#22c55e" stroke="#22c55e" stroke-width="20" pointer-events="all" style="fill: rgb(34, 197, 94); stroke: rgb(34, 197, 94);"/><ellipse cx="698" cy="328" rx="10" ry="10" fill="#22c55e" stroke="#22c55e" stroke-width="20" pointer-events="all" style="fill: rgb(34, 197, 94); stroke: rgb(34, 197, 94);"/></g></g><g data-cell-id="WbDScF-n3EqTfmF48D0b-31"><g><path d="M 245.8 523.67 L 230.28 422.83" fill="none" stroke="#22c55e" stroke-width="30" stroke-miterlimit="10" pointer-events="stroke" style="stroke: rgb(34, 197, 94);"/><ellipse cx="248" cy="538" rx="14.5" ry="14.5" fill="#22c55e" stroke="#22c55e" stroke-width="30" pointer-events="all" style="fill: rgb(34, 197, 94); stroke: rgb(34, 197, 94);"/><ellipse cx="228" cy="408" rx="15" ry="15" fill="#22c55e" stroke="#22c55e" stroke-width="30" pointer-events="all" style="fill: rgb(34, 197, 94); stroke: rgb(34, 197, 94);"/></g></g><g data-cell-id="WbDScF-n3EqTfmF48D0b-32"><g><path d="M 228 408 L 378 518" fill="none" stroke="#22c55e" stroke-width="20" stroke-miterlimit="10" pointer-events="stroke" style="stroke: rgb(34, 197, 94);"/></g></g><g data-cell-id="WbDScF-n3EqTfmF48D0b-33"><g><path d="M 298 338 L 568 338" fill="none" stroke="#22c55e" stroke-width="20" stroke-miterlimit="10" pointer-events="stroke" style="stroke: rgb(34, 197, 94);"/></g></g><g data-cell-id="WbDScF-n3EqTfmF48D0b-34"><g><path d="M 228 408 L 448 388" fill="none" stroke="#22c55e" stroke-width="20" stroke-miterlimit="10" pointer-events="stroke" style="stroke: rgb(34, 197, 94);"/></g></g><g data-cell-id="WbDScF-n3EqTfmF48D0b-35"><g><path d="M 378 518 L 388 728" fill="none" stroke="#22c55e" stroke-width="20" stroke-miterlimit="10" pointer-events="stroke" style="stroke: rgb(34, 197, 94);"/></g></g><g data-cell-id="WbDScF-n3EqTfmF48D0b-36"><g><path d="M 378 518 L 488 708" fill="none" stroke="#22c55e" stroke-width="20" stroke-miterlimit="10" pointer-events="stroke" style="stroke: rgb(34, 197, 94);"/></g></g><g data-cell-id="WbDScF-n3EqTfmF48D0b-37"><g><path d="M 385.37 524.76 L 490.63 621.24" fill="none" stroke="#22c55e" stroke-width="20" stroke-miterlimit="10" pointer-events="stroke" style="stroke: rgb(34, 197, 94);"/><ellipse cx="378" cy="518" rx="10" ry="10" fill="#22c55e" stroke="#22c55e" stroke-width="20" pointer-events="all" style="fill: rgb(34, 197, 94); stroke: rgb(34, 197, 94);"/><ellipse cx="498" cy="628" rx="10" ry="10" fill="#22c55e" stroke="#22c55e" stroke-width="20" pointer-events="all" style="fill: rgb(34, 197, 94); stroke: rgb(34, 197, 94);"/></g></g><g data-cell-id="WbDScF-n3EqTfmF48D0b-38"><g><path d="M 498 628 L 588 608" fill="none" stroke="#22c55e" stroke-width="20" stroke-miterlimit="10" pointer-events="stroke" style="stroke: rgb(34, 197, 94);"/></g></g><g data-cell-id="WbDScF-n3EqTfmF48D0b-44"><g><path d="M 148 228 L 318 218 L 388 258 L 448 278 L 548 258 L 608 208 L 698 178 L 698 398 L 678 418 L 688 448 L 678 498 L 648 578 L 588 608 L 548 638 L 538 698 L 488 708 L 488 758 L 448 778 L 408 758 L 388 728 L 338 748 L 278 718 L 218 708 L 188 658 L 138 658 L 148 228" fill="none" stroke="#22c55e" stroke-width="20" stroke-linejoin="round" stroke-miterlimit="10" pointer-events="stroke" style="stroke: rgb(34, 197, 94);"/></g></g></g></g></g></svg>